<?xml version="1.0" encoding="UTF-8" standalone="no"?>
<!-- Created with Inkscape (http://www.inkscape.org/) -->
<svg version="1.1" id="svg1" width="48" height="48" viewBox="0 0 48 48" xml:space="preserve" xmlns="http://www.w3.org/2000/svg" xmlns:svg="http://www.w3.org/2000/svg"><defs id="defs1"/><g id="g1"><g id="g11" transform="translate(-45.986513,12.776918)"><path style="fill:#549a70" d="m 59.655734,29.935331 -1.76,-0.95226 -0.264111,-0.260015 -0.26411,-0.260015 1.142994,-2.269683 1.142994,-2.269684 2.321117,1.259467 2.321117,1.259467 -0.0824,0.169143 -0.0824,0.169142 -1.02628,2.081185 -1.026278,2.081185 -0.331318,-0.02784 -0.331318,-0.02784 z m 8.560001,0.147348 -0.56,-0.146344 V 28.005563 26.07479 l 0.56,0.222935 0.56,0.222936 2.4,0.14887 2.399999,0.14887 0.769153,-0.417569 0.769152,-0.417569 0.670848,-0.903104 0.670847,-0.903104 0.16,-16.0568961 0.16,-16.0568961 2.160001,-0.094621 2.16,-0.094621 0.04892,6.1746209 0.04892,6.1746209 -0.0705,9.2800004 -0.0705,9.28 -0.489759,1.757053 -0.489759,1.757054 -1.488661,1.487451 -1.488661,1.48745 -1.73808,0.515496 -1.73808,0.515496 -2.42192,-0.03712 -2.421919,-0.03712 z" id="path10"/><path style="fill:#696969" d="m 55.123373,20.729235 -1.812361,-0.57961 -1.116716,-0.690169 -1.116715,-0.690168 -1.139711,-1.261523 -1.13971,-1.261524 -0.767398,-1.531489 -0.767397,-1.531489 -0.433037,-1.76 -0.433037,-1.7599996 0.01506,-3.364294 0.01506,-3.3642937 0.682681,-2.2475774 0.68268,-2.2475775 1.26458,-1.7659645 1.264579,-1.7659646 1.266087,-0.8773991 1.266088,-0.8773992 1.720816,-0.6682413 1.720816,-0.6682412 3.240317,-0.1567051 3.240316,-0.1567051 3.239684,0.5690669 3.239684,0.5690668 v 1.8230964 1.8230964 l -2.64,-0.8055547 -2.64,-0.8055546 -3.360001,-0.026427 -3.36,-0.026428 -1.75148,0.9934383 -1.751481,0.9934382 -1.050627,1.5245613 -1.050627,1.5245613 -0.541564,1.8020005 -0.541564,1.8020006 -0.0044,3.2 -0.0044,3.2000003 0.577039,1.7928526 0.577039,1.792853 1.180155,1.561463 1.180156,1.561464 1.889306,0.965683 1.889306,0.965684 3.221563,-0.02176 3.221564,-0.02176 2.08,-0.81337 2.08,-0.81337 0.56,-0.239106 0.56,-0.239105 v 1.611245 1.611244 l -1.779264,0.665708 -1.779264,0.665708 -1.340736,0.309461 -1.340737,0.309461 -3.2,-0.0094 -3.2,-0.0094 z M 71.815735,6.463263 V -7.7767372 h 1.919999 1.92 v 6.0800001 6.0800001 h 0.48 0.48 v 1.44 1.44 h -0.48 -0.48 v 6.72 6.72 h -1.92 -1.919999 z m 17.92,7.52 v -6.72 h -4.16 -4.16 v -1.44 -1.44 h 4.16 4.16 v -6.0800001 -6.0800001 h 1.92 1.92 v 14.2400002 14.24 h -1.92 -1.92 z" id="path9"/></g></g></svg>